<svg xmlns="http://www.w3.org/2000/svg" width="100.094" height="13.813" viewBox="0 0 100.094 13.813">
  <defs>
    <style>
      .cls-1 {
        fill: #fff;
        fill-rule: evenodd;
      }
    </style>
  </defs>
  <path id="social_ui" data-name="social ui" class="cls-1" d="M155.079,169.6c3.581,0,5.561-1.78,5.561-4.461,0-4.961-7.541-3.721-7.541-5.361,0-.58.44-0.92,1.44-0.92a6.188,6.188,0,0,1,3.9,1.4l1.88-2.581a8.138,8.138,0,0,0-5.421-1.86c-3.421,0-5.3,2-5.3,4.241,0,5.141,7.542,3.681,7.542,5.441,0,0.66-.721,1.06-1.881,1.06a6.044,6.044,0,0,1-4.281-1.76l-1.82,2.68A8.243,8.243,0,0,0,155.079,169.6Zm14.12,0a6.906,6.906,0,1,0-7.141-6.9A6.775,6.775,0,0,0,169.2,169.6Zm0-3.041a3.868,3.868,0,1,1,3.621-3.861A3.622,3.622,0,0,1,169.2,166.558Zm15.9,3.041a6.227,6.227,0,0,0,5.821-3.581l-2.96-1.4a3.2,3.2,0,0,1-2.861,1.94,3.863,3.863,0,0,1,0-7.721,3.2,3.2,0,0,1,2.861,1.94l2.96-1.42A6.151,6.151,0,0,0,185.1,155.8c-4.1,0-7.221,2.781-7.221,6.9C177.878,166.8,181,169.6,185.1,169.6Zm11.239-.24V156.016H192.9v13.343h3.441Zm15.862,0-5.021-13.343h-4.341l-5.021,13.343h3.9l0.66-1.921h5.261l0.66,1.921h3.9Zm-5.5-4.921h-3.381l1.7-5.021Zm15.72,4.921v-3h-5.361V156.016h-3.441v13.343h8.8Zm14.2,0.24c4.281,0,6.282-2.341,6.282-5.661v-7.922h-3.481v7.822a2.812,2.812,0,0,1-5.621,0v-7.822h-3.5v7.942C230.3,167.238,232.337,169.6,236.618,169.6Zm12.62-.24V156.016H245.8v13.343h3.441Z" transform="translate(-149.156 -155.781)"/>
</svg>
