<?xml version="1.0" encoding="utf-8"?>
<!-- Generator: Adobe Illustrator 23.1.0, SVG Export Plug-In . SVG Version: 6.00 Build 0)  -->
<svg version="1.1" id="All_glyphs" xmlns="http://www.w3.org/2000/svg" xmlns:xlink="http://www.w3.org/1999/xlink" x="0px" y="0px"
	 viewBox="0 0 100 90" style="enable-background:new 0 0 100 90;" xml:space="preserve">
<g>
	<path d="M61.88,67.24c-12.46-4.49-16.44-8.28-16.44-16.4c0-4.87,3.8-3.28,5.47-12.2c0.69-3.7,4.05-0.06,4.7-8.51
		c0-3.37-1.83-4.2-1.83-4.2s0.93-4.98,1.3-8.82C55.53,12.34,52.29,0,35,0S14.47,12.34,14.92,17.12c0.36,3.83,1.3,8.82,1.3,8.82
		s-1.83,0.84-1.83,4.2c0.64,8.45,4,4.81,4.69,8.51c1.67,8.92,5.47,7.33,5.47,12.2c0,8.11-3.98,11.9-16.44,16.4
		c-1.5,0.54-5.08,1.38-8.12,2.69V90h80c0,0,0-7.4,0-10.53C80,76.34,74.38,71.75,61.88,67.24z M85,40V25H75v15H60v10h15v15h10V50h15
		V40H85z"/>
</g>
</svg>
