<svg xmlns="http://www.w3.org/2000/svg" width="14" height="14" viewBox="0 0 14 14">
  <defs>
    <style>
      .cls-1 {
        fill: #a6bad1;
        fill-rule: evenodd;
      }
    </style>
  </defs>
  <path id="page_is_approved" data-name="page is approved" class="cls-1" d="M422,391a7,7,0,1,0,7,7A7,7,0,0,0,422,391Zm3.682,5.531-4.078,3.96a0.852,0.852,0,0,1-.515.208h-0.352a0.853,0.853,0,0,1-.516-0.208l-1.92-1.869a0.288,0.288,0,0,1,0-.415l0.755-.732a0.311,0.311,0,0,1,.428,0l1.226,1.186a0.311,0.311,0,0,0,.428,0L424.5,395.4a0.311,0.311,0,0,1,.428,0l0.751,0.723A0.287,0.287,0,0,1,425.682,396.531Z" transform="translate(-415 -391)"/>
</svg>
