<svg xmlns="http://www.w3.org/2000/svg" width="11" height="20" viewBox="0 0 11 20">
  <defs>
    <style>
      .cls-1 {
        fill: #a6bad1;
        fill-rule: evenodd;
      }
    </style>
  </defs>
  <path id="attach-icon" class="cls-1" d="M1260,1143.59v8.87h0v0.07h0a5.5,5.5,0,0,1-10.99.11H1249v-10.29h0a4.315,4.315,0,1,1,8.63,0h0v4.81l-0.01.01v5.23c0,0.03.01,0.05,0.01,0.07s-0.01.05-.01,0.08v0.06h0a3.052,3.052,0,0,1-6.1,0h0v-9.03h1.1v8.91h0v0.12a0.433,0.433,0,0,1,.01-0.05,1.946,1.946,0,0,0,3.89,0,0.083,0.083,0,0,0,0,.05v-7.54h0.01v-2.72a3.215,3.215,0,1,0-6.43,0l0.01,10.18v-0.01a4.39,4.39,0,0,0,8.78,0,0.01,0.01,0,0,1,.01.01v-8.94a0.122,0.122,0,0,1,0-.06l1.1,0.03v0.03h0Z" transform="translate(-1249 -1138)"/>
</svg>
