<?xml version="1.0" encoding="utf-8"?>
<!-- Generator: Adobe Illustrator 23.1.0, SVG Export Plug-In . SVG Version: 6.00 Build 0)  -->
<svg version="1.1" id="All_glyphs" xmlns="http://www.w3.org/2000/svg" xmlns:xlink="http://www.w3.org/1999/xlink" x="0px" y="0px"
	 viewBox="0 0 47 52" style="enable-background:new 0 0 47 52;" xml:space="preserve">
<g>
	<path d="M45.24,41.76L31.46,26l13.79-15.76c2.34-2.34,2.34-6.14,0-8.49c-2.34-2.34-6.14-2.34-8.49,0L23.5,16.91L10.24,1.76
		c-2.34-2.34-6.14-2.34-8.49,0c-2.34,2.34-2.34,6.14,0,8.49L15.55,26L1.76,41.76c-2.34,2.34-2.34,6.14,0,8.49
		c2.34,2.34,6.14,2.34,8.49,0L23.5,35.09l13.26,15.15c2.34,2.34,6.14,2.34,8.49,0C47.59,47.9,47.59,44.1,45.24,41.76z"/>
</g>
</svg>
