<?xml version="1.0" encoding="utf-8"?>
<!-- Generator: Adobe Illustrator 23.1.0, SVG Export Plug-In . SVG Version: 6.00 Build 0)  -->
<svg version="1.1" id="All_glyphs" xmlns="http://www.w3.org/2000/svg" xmlns:xlink="http://www.w3.org/1999/xlink" x="0px" y="0px"
	 viewBox="0 0 94 90" style="enable-background:new 0 0 94 90;" xml:space="preserve">
<g>
	<path d="M73.6,67.24c-12.33-4.49-16.27-8.28-16.27-16.4c0-4.87,3.76-3.28,5.42-12.2c0.69-3.7,4.01-0.06,4.65-8.51
		c0-3.37-1.81-4.2-1.81-4.2s0.92-4.98,1.28-8.82C67.31,12.34,64.11,0,47,0S26.68,12.34,27.13,17.12c0.36,3.83,1.28,8.82,1.28,8.82
		s-1.81,0.84-1.81,4.2c0.63,8.45,3.96,4.81,4.64,8.51c1.65,8.92,5.42,7.33,5.42,12.2c0,8.11-3.94,11.9-16.26,16.4
		C8.03,71.75,0,76.34,0,79.47C0,82.6,0,90,0,90h47h47c0,0,0-7.4,0-10.53C94,76.34,85.97,71.75,73.6,67.24z"/>
</g>
</svg>
