<?xml version="1.0" encoding="utf-8"?>
<!-- Generator: Adobe Illustrator 23.1.0, SVG Export Plug-In . SVG Version: 6.00 Build 0)  -->
<svg version="1.1" id="All_glyphs" xmlns="http://www.w3.org/2000/svg" xmlns:xlink="http://www.w3.org/1999/xlink" x="0px" y="0px"
	 viewBox="0 0 125.67 125.67" style="enable-background:new 0 0 125.67 125.67;" xml:space="preserve">
<style type="text/css">
	.st0{fill:#FFFFFF;}
</style>
<g>
	<path class="st0" d="M87.19,91.07c-11.45-4.17-15.1-7.69-15.1-15.22c0-4.52,3.49-3.05,5.03-11.33c0.64-3.44,3.72-0.06,4.31-7.9
		c0-3.13-1.68-3.9-1.68-3.9s0.86-4.63,1.19-8.19c0.42-4.44-2.56-15.9-18.45-15.9S43.62,40.1,44.04,44.53
		c0.34,3.56,1.19,8.19,1.19,8.19s-1.68,0.78-1.68,3.9c0.59,7.84,3.68,4.46,4.31,7.9c1.54,8.28,5.03,6.81,5.03,11.33
		c0,7.53-3.66,11.05-15.1,15.22c-11.48,4.18-15.87,6.76-15.87,9.67c0,2.91,7.89,8.82,7.89,8.82l29.25,13.35l31.34-9.75
		c0,0,13.35-9.16,13.35-12.07C103.75,98.18,98.67,95.26,87.19,91.07z"/>
</g>
<g>
	<path class="st0" d="M62.83,7c30.84,0,55.83,25,55.83,55.83c0,30.84-25,55.83-55.83,55.83S7,93.67,7,62.83C7,32,32,7,62.83,7
		 M62.83,0C28.19,0,0,28.19,0,62.83c0,34.65,28.19,62.83,62.83,62.83s62.83-28.19,62.83-62.83C125.67,28.19,97.48,0,62.83,0L62.83,0
		z"/>
</g>
</svg>
