<?xml version="1.0" encoding="utf-8"?>
<!-- Generator: Adobe Illustrator 23.1.0, SVG Export Plug-In . SVG Version: 6.00 Build 0)  -->
<svg version="1.1" id="All_glyphs" xmlns="http://www.w3.org/2000/svg" xmlns:xlink="http://www.w3.org/1999/xlink" x="0px" y="0px"
	 viewBox="0 0 86 90" style="enable-background:new 0 0 86 90;" xml:space="preserve">
<path d="M79.11,30.15C71.2,11.72,58.46-2.31,52.01,0.32C41.06,4.76,58.53,26.13,4.77,47.98c-4.64,1.89-5.82,9.44-3.88,13.96
	c1.94,4.52,8.29,9.01,12.94,7.12c0.8-0.33,3.75-1.28,3.75-1.28c3.32,4.45,6.79,1.81,8.02,4.64c1.48,3.4,4.7,10.78,5.79,13.3
	c1.1,2.51,3.58,4.84,5.38,4.15c1.79-0.68,7.91-3.01,10.25-3.9c2.34-0.89,2.9-2.97,2.18-4.62c-0.77-1.77-3.93-2.29-4.83-4.36
	c-0.9-2.07-3.85-8.7-4.7-10.78c-1.15-2.84,1.29-5.15,4.85-5.52c24.47-2.55,29.04,12.56,37.37,9.17
	C88.34,67.24,87.03,48.57,79.11,30.15z M76.36,60.03c-1.43,0.58-11.06-7.01-17.21-21.33c-6.15-14.32-5.38-27.41-3.95-27.99
	c1.43-0.58,10.82,8.58,16.97,22.9C78.32,47.92,77.79,59.45,76.36,60.03z"/>
</svg>
