<svg xmlns="http://www.w3.org/2000/svg" width="19.531" height="16.312" viewBox="0 0 19.531 16.312">
  <defs>
    <style>
      .cls-1 {
        fill: #a2b1c9;
        fill-rule: evenodd;
      }
    </style>
  </defs>
  <path id="messages-icon" class="cls-1" d="M496.982,159.259a5.326,5.326,0,0,1-2.866,3.949,2.75,2.75,0,0,0,1.411,2.5c0.439,0.327-1.452.736-3.516-.788a6.14,6.14,0,0,0,1.27-4.427,6.331,6.331,0,0,0-2.749-4.4,9.38,9.38,0,0,0-5.394-1.627c-0.332,0-.669.019-1,0.051a8.119,8.119,0,0,1,6.245-1.771C494.4,153.19,497.357,156.1,496.982,159.259Zm-4.914,1.375c0.375,3.152-2.581,6.067-6.6,6.511a9.3,9.3,0,0,1-1.022.056,9.091,9.091,0,0,1-1.09-.065,5.6,5.6,0,0,1-3.783,1.86c-0.538,0-.805-0.162-0.61-0.308a2.747,2.747,0,0,0,1.41-2.5,5.327,5.327,0,0,1-2.865-3.95c-0.375-3.152,2.581-6.068,6.6-6.511a9.447,9.447,0,0,1,1.029-.057C488.721,155.67,491.726,157.752,492.068,160.634Z" transform="translate(-477.469 -152.688)"/>
</svg>
