<?xml version="1.0" encoding="utf-8"?>
<!-- Generator: Adobe Illustrator 23.1.0, SVG Export Plug-In . SVG Version: 6.00 Build 0)  -->
<svg version="1.1" id="All_glyphs" xmlns="http://www.w3.org/2000/svg" xmlns:xlink="http://www.w3.org/1999/xlink" x="0px" y="0px"
	 viewBox="0 0 80 88.52" style="enable-background:new 0 0 80 88.52;" xml:space="preserve">
<g>
	<path d="M63.25,36.82C51.85,12.29,45.93,2.97,27.29,3.36c-6.63,0.14-5.04-4.81-10.1-2.93c-5.05,1.88-0.72,4.62-5.89,8.86
		C-3.21,21.2-1.87,32.22,4.86,58.49C7.7,69.55-1.97,70.09,1.85,80.82c2.79,7.82,23.39,11.09,45.13,3.03
		c21.73-8.06,35.45-24.07,32.66-31.89C75.81,41.23,68.06,47.15,63.25,36.82z M44.62,77.24c-19.41,7.2-35.36,2.96-36.04,1.08
		c-1.16-3.25,6.27-14.08,28.46-22.32c22.19-8.23,34.58-5.18,35.87-1.55C73.68,56.59,64.03,70.04,44.62,77.24z M38.38,59.76
		c-10.15,3.77-17.2,8.07-21.76,11.95c3.21,2.92,9.23,3.63,15.23,1.4c7.64-2.83,12.33-9.34,10.47-14.53
		c-0.02-0.06-0.05-0.12-0.08-0.18C40.99,58.83,39.71,59.27,38.38,59.76z"/>
</g>
</svg>
