<?xml version="1.0" encoding="utf-8"?>
<!-- Generator: Adobe Illustrator 23.1.0, SVG Export Plug-In . SVG Version: 6.00 Build 0)  -->
<svg version="1.1" id="All_glyphs" xmlns="http://www.w3.org/2000/svg" xmlns:xlink="http://www.w3.org/1999/xlink" x="0px" y="0px"
	 viewBox="0 0 84 84" style="enable-background:new 0 0 84 84;" xml:space="preserve">
<g>
	<path d="M75.92,42c0-5.24,3.22-9.37,8.08-12.21c-0.87-2.92-2.03-5.72-3.46-8.36c-5.44,1.42-9.85-0.71-13.55-4.41
		c-3.7-3.7-4.84-8.11-3.41-13.56C60.94,2.03,58.14,0.87,55.21,0C52.37,4.86,47.24,8.08,42,8.08c-5.24,0-10.37-3.22-13.21-8.08
		c-2.92,0.87-5.72,2.03-8.36,3.46c1.42,5.44,0.29,9.85-3.41,13.56c-3.7,3.7-8.11,5.84-13.56,4.41C2.03,24.06,0.87,26.86,0,29.79
		C4.86,32.63,8.08,36.76,8.08,42S4.86,52.37,0,55.21c0.87,2.92,2.03,5.72,3.46,8.36c5.44-1.42,9.85-0.29,13.56,3.41
		c3.7,3.7,4.84,8.11,3.41,13.56c2.64,1.43,5.44,2.59,8.36,3.46c2.84-4.85,7.97-8.08,13.21-8.08c5.24,0,10.37,3.22,13.21,8.08
		c2.92-0.87,5.72-2.03,8.36-3.46c-1.42-5.44-0.29-9.85,3.41-13.55c3.7-3.7,8.11-5.84,13.55-4.41c1.43-2.64,2.58-5.44,3.46-8.36
		C79.14,51.37,75.92,47.24,75.92,42z M42,60.27c-10.09,0-18.26-8.18-18.26-18.27c0-10.09,8.18-18.27,18.26-18.27
		c10.09,0,18.26,8.18,18.26,18.27C60.26,52.09,52.09,60.27,42,60.27z"/>
</g>
</svg>
