<?xml version="1.0" encoding="utf-8"?>
<!-- Generator: Adobe Illustrator 23.1.0, SVG Export Plug-In . SVG Version: 6.00 Build 0)  -->
<svg version="1.1" id="All_glyphs" xmlns="http://www.w3.org/2000/svg" xmlns:xlink="http://www.w3.org/1999/xlink" x="0px" y="0px"
	 viewBox="0 0 78 78" style="enable-background:new 0 0 78 78;" xml:space="preserve">
<g>
	<path d="M71.81,6.19c-7.21-7.22-12.63-6.13-12.63-6.13L33.92,25.32L5.05,54.19L0,78l23.81-5.05l28.87-28.87l25.26-25.26
		C77.94,18.82,79.03,13.41,71.81,6.19z M22.39,70.09l-8.12,1.75c-0.79-1.47-1.73-2.93-3.45-4.66c-1.73-1.73-3.19-2.67-4.66-3.46
		l1.75-8.12l2.35-2.35c0,0,4.42,0.09,9.4,5.08c4.99,4.99,5.08,9.41,5.08,9.41L22.39,70.09z"/>
</g>
</svg>
