<?xml version="1.0" encoding="utf-8"?>
<!-- Generator: Adobe Illustrator 23.1.0, SVG Export Plug-In . SVG Version: 6.00 Build 0)  -->
<svg version="1.1" id="All_glyphs" xmlns="http://www.w3.org/2000/svg" xmlns:xlink="http://www.w3.org/1999/xlink" x="0px" y="0px"
	 viewBox="0 0 100 95" style="enable-background:new 0 0 100 95;" xml:space="preserve">
<g>
	<path d="M85.62,30.86L75.4,2.68c-0.76-2.08-2.97-3.18-4.95-2.46L2.46,25.03c-1.98,0.72-2.97,2.99-2.21,5.07l10.78,29.71V43.89
		c0-7.18,5.74-13.03,12.8-13.03H41.8l21.43-15.04l12.4,15.04H85.62z M96.19,39.88H23.84c-2.1,0-3.81,1.8-3.81,4.01v47.11
		c0,2.21,1.71,4.01,3.81,4.01h72.35c2.1,0,3.81-1.79,3.81-4.01V43.89C100,41.67,98.3,39.88,96.19,39.88z M90.67,84.98H30.7v-8.59
		l9.23-21.47l13.84,17.18l12.98-13.31l16.69-6.02l7.23,16.11V84.98z"/>
</g>
</svg>
