<?xml version="1.0" encoding="utf-8"?>
<!-- Generator: Adobe Illustrator 23.1.0, SVG Export Plug-In . SVG Version: 6.00 Build 0)  -->
<svg version="1.1" id="Smile-icon_1_" xmlns="http://www.w3.org/2000/svg" xmlns:xlink="http://www.w3.org/1999/xlink" x="0px"
	 y="0px" viewBox="0 0 32 32" style="enable-background:new 0 0 32 32;" xml:space="preserve">
<style type="text/css">
	.st0{fill:#A6BAD1;}
</style>
<path class="st0" d="M16,32C7.2,32,0,24.8,0,16S7.2,0,16,0s16,7.2,16,16S24.8,32,16,32z M16,2C8.3,2,2,8.3,2,16s6.3,14,14,14
	s14-6.3,14-14S23.7,2,16,2z"/>
<path class="st0" d="M9.2,22.3c1,2.7,3.7,4.7,6.8,4.7s5.8-1.9,6.8-4.7H9.2z"/>
<path class="st0" d="M10.5,8C9.7,8,9,10,9,12.5S9.7,17,10.5,17s1.5-2,1.5-4.5S11.3,8,10.5,8z M21.5,8c-0.8,0-1.5,2-1.5,4.5
	s0.7,4.5,1.5,4.5s1.5-2,1.5-4.5S22.3,8,21.5,8z"/>
</svg>
