<?xml version="1.0" encoding="utf-8"?>
<!-- Generator: Adobe Illustrator 23.1.0, SVG Export Plug-In . SVG Version: 6.00 Build 0)  -->
<svg version="1.1" id="Слой_1" xmlns="http://www.w3.org/2000/svg" xmlns:xlink="http://www.w3.org/1999/xlink" x="0px" y="0px"
	 viewBox="0 0 15 15" style="enable-background:new 0 0 15 15;" xml:space="preserve">
<style type="text/css">
	.st0{fill:#A6BAD1;}
</style>
<path class="st0" d="M10.6,0H4.4L0,4.4v6.2L4.4,15h6.2l4.4-4.4V4.4L10.6,0z M8.9,4L8.4,8.2H6.7L6.1,4H8.9z M8.6,10.8
	C8.4,10.9,8,11,7.5,11c-0.5,0-0.9-0.1-1.1-0.2C6.1,10.6,6,10.4,6,10.1c0-0.3,0.1-0.5,0.4-0.7C6.7,9.3,7,9.2,7.5,9.2
	c0.5,0,0.8,0.1,1.1,0.2C8.9,9.6,9,9.8,9,10.1C9,10.4,8.9,10.6,8.6,10.8z"/>
</svg>
