<?xml version="1.0" encoding="utf-8"?>
<!-- Generator: Adobe Illustrator 23.1.0, SVG Export Plug-In . SVG Version: 6.00 Build 0)  -->
<svg version="1.1" xmlns="http://www.w3.org/2000/svg" xmlns:xlink="http://www.w3.org/1999/xlink" x="0px" y="0px"
	 viewBox="0 0 15 15" style="enable-background:new 0 0 15 15;" xml:space="preserve">
<style type="text/css">
	.st0{enable-background:new    ;}
	.st1{fill:#A6BAD1;}
	.st2{fill:#FFFFFF;}
</style>
<g id="Многоугольник_1_1_" class="st0">
	<g id="Многоугольник_1">
		<g>
			<polygon class="st1" points="15,4.39 10.6,0 4.39,0 0,4.4 0,10.61 4.39,15 10.61,15 15,10.6 			"/>
		</g>
	</g>
</g>
<g id="_x21__1_" class="st0">
	<g id="_x21_">
		<g>
			<path class="st2" d="M8.42,8.22L8.93,4h-2.8l0.53,4.22H8.42z M8.63,9.44C8.37,9.28,8,9.21,7.53,9.21c-0.49,0-0.86,0.08-1.12,0.23
				C6.14,9.58,6.01,9.8,6.01,10.09c0,0.29,0.13,0.51,0.4,0.67c0.27,0.16,0.64,0.23,1.12,0.23c0.47,0,0.84-0.08,1.1-0.24
				c0.26-0.16,0.39-0.38,0.39-0.66C9.01,9.81,8.88,9.6,8.63,9.44z"/>
		</g>
	</g>
</g>
</svg>
