<?xml version="1.0" encoding="utf-8"?>
<!-- Generator: Adobe Illustrator 23.1.0, SVG Export Plug-In . SVG Version: 6.00 Build 0)  -->
<svg version="1.1" id="All_glyphs" xmlns="http://www.w3.org/2000/svg" xmlns:xlink="http://www.w3.org/1999/xlink" x="0px" y="0px"
	 viewBox="0 0 80 90" style="enable-background:new 0 0 80 90;" xml:space="preserve">
<path d="M58.24,31.81c-0.66-1.78,17.7-18.17,6.99-31.46c-2.51-3.11-11.01,14.87-23.08,23.02C35.49,27.87,20,37.43,20,42.71v34.2
	C20,83.27,44.57,90,63.25,90C70.08,90,80,47.12,80,40.31C80,33.48,58.9,33.59,58.24,31.81z M15,32.29c-3.29,0-15,2-15,15.61v24.24
	c0,13.61,11.71,15.11,15,15.11c3.29,0-5-2.86-5-11.3V44.09C10,35.24,18.29,32.29,15,32.29z"/>
</svg>
