<?xml version="1.0" encoding="utf-8"?>
<!-- Generator: Adobe Illustrator 23.1.0, SVG Export Plug-In . SVG Version: 6.00 Build 0)  -->
<svg version="1.1" id="All_glyphs" xmlns="http://www.w3.org/2000/svg" xmlns:xlink="http://www.w3.org/1999/xlink" x="0px" y="0px"
	 viewBox="0 0 100 88" style="enable-background:new 0 0 100 88;" xml:space="preserve">
<g>
	<path d="M100,88c0,0-0.2-18.93-1.35-20.9c-1.72-2.92-5.73-4.93-13.17-8.04c-7.42-3.1-9.79-5.72-9.79-11.32
		c0-3.36,2.26-2.26,3.26-8.42c0.41-2.55,2.41-0.04,2.79-5.87c0-2.32-1.09-2.9-1.09-2.9s0.55-3.44,0.77-6.08
		c0.27-3.3-1.66-11.82-11.95-11.82c-10.3,0-12.22,8.52-11.96,11.82c0.22,2.65,0.77,6.08,0.77,6.08s-1.09,0.58-1.09,2.9
		c0.38,5.83,2.38,3.32,2.79,5.87c0.99,6.16,3.26,5.06,3.26,8.42c0,3.81-1.1,6.24-4.14,8.37c16.2,8.11,18.37,9.76,18.37,17.02V88H100
		z M51.12,61.88c-9.89-4.13-13.05-7.62-13.05-15.09c0-4.48,3.02-3.02,4.35-11.23c0.55-3.4,3.22-0.06,3.73-7.83
		c0-3.1-1.46-3.87-1.46-3.87s0.74-4.58,1.03-8.11C46.07,11.36,43.5,0,29.77,0c-13.72,0-16.3,11.36-15.94,15.75
		c0.29,3.53,1.03,8.11,1.03,8.11s-1.46,0.77-1.46,3.87c0.51,7.77,3.18,4.42,3.73,7.83c1.33,8.21,4.35,6.74,4.35,11.23
		c0,7.46-3.16,10.95-13.05,15.09C5.41,63.14,0,65.09,0,69.78V88h69.47c0,0,0-10.78,0-13.66C69.47,70.06,61.04,66.02,51.12,61.88z"/>
</g>
</svg>
