<svg xmlns="http://www.w3.org/2000/svg" width="15" height="14" viewBox="0 0 15 14">
  <defs>
    <style>
      .cls-1 {
        fill: #a6bad1;
        fill-rule: evenodd;
      }
    </style>
  </defs>
  <path id="volume-off-icon-small" class="cls-1" d="M401.751,1268.27l-13.878,10.64a0.506,0.506,0,0,1-.314.11,0.6,0.6,0,0,1-.562-0.63,0.659,0.659,0,0,1,.249-0.53l13.878-10.65a0.509,0.509,0,0,1,.315-0.11,0.607,0.607,0,0,1,.561.64A0.674,0.674,0,0,1,401.751,1268.27Zm-13.033,2.82a1.2,1.2,0,0,1,1.12-1.27v-0.01h3.721l3.8-3.52h0a1.035,1.035,0,0,1,.707-0.29,1.186,1.186,0,0,1,1.112,1.16l-10.465,8.01v-4.08Zm10.476,2.97v4.67a1.2,1.2,0,0,1-1.123,1.27,1,1,0,0,1-.658-0.25l0,0.01-3.82-3.15h-0.726l6.329-4.85v2.3Z" transform="translate(-387 -1266)"/>
</svg>
