<svg version="1.1" id="svg2" xmlns="http://www.w3.org/2000/svg" x="0" y="0" viewBox="8 11.59 10.75 18.18" xml:space="preserve"><style>.st0{fill:#777}</style><path class="st0" d="M8 13.5v16.26h10.75V13.5H8zm3.36 15.08h-1.34v-1.19h1.34v1.19zm0-2.38h-1.34v-1.19h1.34v1.19zm0-2.38h-1.34v-1.19h1.34v1.19zm2.69 4.76H12.7v-1.19h1.34v1.19zm0-2.38H12.7v-1.19h1.34v1.19zm0-2.38H12.7v-1.19h1.34v1.19zm2.68 4.76h-1.34v-1.19h1.34v1.19zm0-2.38h-1.34v-1.19h1.34v1.19zm0-2.38h-1.34v-1.19h1.34v1.19zm0-2.38h-6.72v-5.56h6.72v5.56z" id="mobile_x5F_phone"/><path class="st0" d="M14.72 11.59h2.02v3.25h-2.02z"/></svg>