<svg xmlns="http://www.w3.org/2000/svg" width="100.094" height="13.813"><path data-name="social ui" d="M5.923 13.819c3.581 0 5.561-1.78 5.561-4.461 0-4.961-7.541-3.721-7.541-5.361 0-.58.44-.92 1.44-.92a6.188 6.188 0 013.9 1.4l1.88-2.581A8.138 8.138 0 005.742.036c-3.421 0-5.3 2-5.3 4.241 0 5.141 7.542 3.681 7.542 5.441 0 .66-.721 1.06-1.881 1.06a6.044 6.044 0 01-4.281-1.76l-1.82 2.68a8.243 8.243 0 005.921 2.121zm14.12 0a6.906 6.906 0 10-7.141-6.9 6.775 6.775 0 007.142 6.9zm0-3.041a3.868 3.868 0 113.621-3.861 3.622 3.622 0 01-3.62 3.86zm15.9 3.041a6.227 6.227 0 005.821-3.581l-2.96-1.4a3.2 3.2 0 01-2.861 1.94 3.863 3.863 0 010-7.721 3.2 3.2 0 012.861 1.94l2.96-1.42a6.151 6.151 0 00-5.82-3.558c-4.1 0-7.221 2.781-7.221 6.9-.001 4.1 3.121 6.9 7.221 6.9zm11.239-.24V.235h-3.438v13.343h3.441zm15.862 0L58.023.236h-4.341l-5.021 13.343h3.9l.66-1.921h5.261l.66 1.921h3.9zm-5.5-4.921h-3.381l1.7-5.021zm15.72 4.921v-3h-5.361V.235h-3.441v13.343h8.8zm14.2.24c4.281 0 6.282-2.341 6.282-5.661V.236h-3.481v7.822a2.812 2.812 0 01-5.621 0V.236h-3.5v7.942c0 3.279 2.037 5.641 6.318 5.641zm12.62-.24V.235h-3.44v13.343h3.441z" fill="#fff" fill-rule="evenodd"/></svg>