<?xml version="1.0" encoding="utf-8"?><svg xmlns="http://www.w3.org/2000/svg" xmlns:xlink="http://www.w3.org/1999/xlink"><symbol viewBox="0 0 100 90" id="add-user-icon" xmlns="http://www.w3.org/2000/svg"><path d="M61.88 67.24c-12.46-4.49-16.44-8.28-16.44-16.4 0-4.87 3.8-3.28 5.47-12.2.69-3.7 4.05-.06 4.7-8.51 0-3.37-1.83-4.2-1.83-4.2s.93-4.98 1.3-8.82C55.53 12.34 52.29 0 35 0S14.47 12.34 14.92 17.12c.36 3.83 1.3 8.82 1.3 8.82s-1.83.84-1.83 4.2c.64 8.45 4 4.81 4.69 8.51 1.67 8.92 5.47 7.33 5.47 12.2 0 8.11-3.98 11.9-16.44 16.4-1.5.54-5.08 1.38-8.12 2.69V90h80V79.47c.01-3.13-5.61-7.72-18.11-12.23zM85 40V25H75v15H60v10h15v15h10V50h15V40H85z"/></symbol><symbol viewBox="0 0 11 20" id="attach-icon" xmlns="http://www.w3.org/2000/svg"><defs/><path d="M1260 1143.59v8.94a5.5 5.5 0 01-10.99.11h-.01v-10.29a4.315 4.315 0 118.63 0v4.81l-.01.01v5.23c0 .03.01.05.01.07s-.01.05-.01.08v.06a3.052 3.052 0 01-6.1 0v-9.03h1.1v9.03a.433.433 0 01.01-.05 1.946 1.946 0 003.89 0 .083.083 0 000 .05v-7.54h.01v-2.72a3.215 3.215 0 10-6.43 0l.01 10.18v-.01a4.39 4.39 0 008.78 0 .01.01 0 01.01.01v-8.94a.122.122 0 010-.06l1.1.03v.03z" transform="translate(-1249 -1138)"/></symbol><symbol viewBox="0 0 90 90" id="calendar-icon" xmlns="http://www.w3.org/2000/svg"><path d="M80 10h-4.5v10h-16V10h-29v10h-16V10H10C4.5 10 0 14.5 0 20v60c0 5.5 4.5 10 10 10h70c5.5 0 10-4.5 10-10V20c0-5.5-4.5-10-10-10zm0 70H10V40h70v40zM26 0h-7v17h7V0zm45 0h-7v17h7V0z"/></symbol><symbol viewBox="0 0 14.84 15" id="close-icon" xmlns="http://www.w3.org/2000/svg"><defs/><path d="M1250 1269.31l-3.28-3.31-4.15 4.19-4.15-4.19-3.28 3.31 4.16 4.19-4.16 4.19 3.28 3.31 4.15-4.19 4.15 4.19 3.28-3.31-4.15-4.19z" transform="translate(-1235.16 -1266)"/></symbol><symbol viewBox="0 0 47 52" id="close-rounded-icon" xmlns="http://www.w3.org/2000/svg"><path d="M45.24 41.76L31.46 26l13.79-15.76c2.34-2.34 2.34-6.14 0-8.49-2.34-2.34-6.14-2.34-8.49 0L23.5 16.91 10.24 1.76C7.9-.58 4.1-.58 1.75 1.76c-2.34 2.34-2.34 6.14 0 8.49L15.55 26 1.76 41.76c-2.34 2.34-2.34 6.14 0 8.49 2.34 2.34 6.14 2.34 8.49 0L23.5 35.09l13.26 15.15c2.34 2.34 6.14 2.34 8.49 0a5.99 5.99 0 00-.01-8.48z"/></symbol><symbol viewBox="0 0 10.75 9.906" id="expand-icon" xmlns="http://www.w3.org/2000/svg"><defs/><path d="M1213.95 601.632v-9.9h10.75v9.9h-10.75zm9.85-7.348h-8.95v6.448h8.95v-6.448z" transform="translate(-1213.94 -591.719)"/></symbol><symbol viewBox="0 0 94 90" id="feed-user-icon" xmlns="http://www.w3.org/2000/svg"><path d="M73.6 67.24c-12.33-4.49-16.27-8.28-16.27-16.4 0-4.87 3.76-3.28 5.42-12.2.69-3.7 4.01-.06 4.65-8.51 0-3.37-1.81-4.2-1.81-4.2s.92-4.98 1.28-8.82C67.31 12.34 64.11 0 47 0S26.68 12.34 27.13 17.12c.36 3.83 1.28 8.82 1.28 8.82s-1.81.84-1.81 4.2c.63 8.45 3.96 4.81 4.64 8.51 1.65 8.92 5.42 7.33 5.42 12.2 0 8.11-3.94 11.9-16.26 16.4C8.03 71.75 0 76.34 0 79.47V90h94V79.47c0-3.13-8.03-7.72-20.4-12.23z"/></symbol><symbol viewBox="0 0 90 90" id="logout-icon" xmlns="http://www.w3.org/2000/svg"><path d="M50.1 80H9.9V10h40.2v15H60V10c0-5.5-4.5-10-10-10H10C4.5 0 0 4.5 0 10v70c0 5.5 4.5 10 10 10h40c5.5 0 10-4.5 10-10V70h-9.9v10zM90 47.5L70.1 28v12h-45v15h45v12L90 47.5z"/></symbol><symbol viewBox="0 0 125.67 125.67" xml:space="preserve" id="main-user-icon" xmlns="http://www.w3.org/2000/svg"><path d="M87.19 91.07c-11.45-4.17-15.1-7.69-15.1-15.22 0-4.52 3.49-3.05 5.03-11.33.64-3.44 3.72-.06 4.31-7.9 0-3.13-1.68-3.9-1.68-3.9s.86-4.63 1.19-8.19c.42-4.44-2.56-15.9-18.45-15.9S43.62 40.1 44.04 44.53c.34 3.56 1.19 8.19 1.19 8.19s-1.68.78-1.68 3.9c.59 7.84 3.68 4.46 4.31 7.9 1.54 8.28 5.03 6.81 5.03 11.33 0 7.53-3.66 11.05-15.1 15.22-11.48 4.18-15.87 6.76-15.87 9.67s7.89 8.82 7.89 8.82l29.25 13.35 31.34-9.75s13.35-9.16 13.35-12.07-5.08-5.83-16.56-10.02z"/><path d="M62.83 7c30.84 0 55.83 25 55.83 55.83 0 30.84-25 55.83-55.83 55.83S7 93.67 7 62.83C7 32 32 7 62.83 7m0-7C28.19 0 0 28.19 0 62.83c0 34.65 28.19 62.83 62.83 62.83s62.83-28.19 62.83-62.83C125.67 28.19 97.48 0 62.83 0z"/></symbol><symbol viewBox="0 0 86 90" id="megaphone-icon" xmlns="http://www.w3.org/2000/svg"><path d="M79.11 30.15C71.2 11.72 58.46-2.31 52.01.32 41.06 4.76 58.53 26.13 4.77 47.98.13 49.87-1.05 57.42.89 61.94c1.94 4.52 8.29 9.01 12.94 7.12.8-.33 3.75-1.28 3.75-1.28 3.32 4.45 6.79 1.81 8.02 4.64 1.48 3.4 4.7 10.78 5.79 13.3 1.1 2.51 3.58 4.84 5.38 4.15 1.79-.68 7.91-3.01 10.25-3.9 2.34-.89 2.9-2.97 2.18-4.62-.77-1.77-3.93-2.29-4.83-4.36-.9-2.07-3.85-8.7-4.7-10.78-1.15-2.84 1.29-5.15 4.85-5.52 24.47-2.55 29.04 12.56 37.37 9.17 6.45-2.62 5.14-21.29-2.78-39.71zm-2.75 29.88c-1.43.58-11.06-7.01-17.21-21.33C53 24.38 53.77 11.29 55.2 10.71c1.43-.58 10.82 8.58 16.97 22.9 6.15 14.31 5.62 25.84 4.19 26.42z"/></symbol><symbol viewBox="0 0 21.23 11.19" xml:space="preserve" id="message-tale-icon" xmlns="http://www.w3.org/2000/svg"><path d="M14.57 5.22A1776.4 1776.4 0 0012.5 0L0 .93s6.53 14.72 21.23 8.89c.07-.02-4.87-.1-6.66-4.6z"/></symbol><symbol viewBox="0 0 19.531 16.312" id="messages-icon" xmlns="http://www.w3.org/2000/svg"><defs/><path d="M496.982 159.259a5.326 5.326 0 01-2.866 3.949 2.75 2.75 0 001.411 2.5c.439.327-1.452.736-3.516-.788a6.14 6.14 0 001.27-4.427 6.331 6.331 0 00-2.749-4.4 9.38 9.38 0 00-5.394-1.627c-.332 0-.669.019-1 .051a8.119 8.119 0 016.245-1.771c4.017.444 6.974 3.354 6.599 6.513zm-4.914 1.375c.375 3.152-2.581 6.067-6.6 6.511a9.3 9.3 0 01-1.022.056 9.091 9.091 0 01-1.09-.065 5.6 5.6 0 01-3.783 1.86c-.538 0-.805-.162-.61-.308a2.747 2.747 0 001.41-2.5 5.327 5.327 0 01-2.865-3.95c-.375-3.152 2.581-6.068 6.6-6.511a9.447 9.447 0 011.029-.057c3.584 0 6.589 2.082 6.931 4.964z" transform="translate(-477.469 -152.688)"/></symbol><symbol viewBox="8 11.59 10.75 18.18" id="mobile-icon" xmlns="http://www.w3.org/2000/svg"><path fill="#777" d="M8 13.5v16.26h10.75V13.5H8zm3.36 15.08h-1.34v-1.19h1.34v1.19zm0-2.38h-1.34v-1.19h1.34v1.19zm0-2.38h-1.34v-1.19h1.34v1.19zm2.69 4.76H12.7v-1.19h1.34v1.19zm0-2.38H12.7v-1.19h1.34v1.19zm0-2.38H12.7v-1.19h1.34v1.19zm2.68 4.76h-1.34v-1.19h1.34v1.19zm0-2.38h-1.34v-1.19h1.34v1.19zm0-2.38h-1.34v-1.19h1.34v1.19zm0-2.38h-6.72v-5.56h6.72v5.56z"/><path d="M14.72 11.59h2.02v3.25h-2.02z"/></symbol><symbol viewBox="0 0 80 88.52" id="notification-icon" xmlns="http://www.w3.org/2000/svg"><path d="M63.25 36.82C51.85 12.29 45.93 2.97 27.29 3.36c-6.63.14-5.04-4.81-10.1-2.93-5.05 1.88-.72 4.62-5.89 8.86C-3.21 21.2-1.87 32.22 4.86 58.49c2.84 11.06-6.83 11.6-3.01 22.33 2.79 7.82 23.39 11.09 45.13 3.03 21.73-8.06 35.45-24.07 32.66-31.89-3.83-10.73-11.58-4.81-16.39-15.14zM44.62 77.24c-19.41 7.2-35.36 2.96-36.04 1.08C7.42 75.07 14.85 64.24 37.04 56c22.19-8.23 34.58-5.18 35.87-1.55.77 2.14-8.88 15.59-28.29 22.79zm-6.24-17.48c-10.15 3.77-17.2 8.07-21.76 11.95 3.21 2.92 9.23 3.63 15.23 1.4 7.64-2.83 12.33-9.34 10.47-14.53-.02-.06-.05-.12-.08-.18-1.25.43-2.53.87-3.86 1.36z"/></symbol><symbol viewBox="0 0 84 84" id="options-icon" xmlns="http://www.w3.org/2000/svg"><path d="M75.92 42c0-5.24 3.22-9.37 8.08-12.21a43.81 43.81 0 00-3.46-8.36c-5.44 1.42-9.85-.71-13.55-4.41-3.7-3.7-4.84-8.11-3.41-13.56A43.635 43.635 0 0055.21 0C52.37 4.86 47.24 8.08 42 8.08c-5.24 0-10.37-3.22-13.21-8.08a43.81 43.81 0 00-8.36 3.46c1.42 5.44.29 9.85-3.41 13.56-3.7 3.7-8.11 5.84-13.56 4.41A43.282 43.282 0 000 29.79C4.86 32.63 8.08 36.76 8.08 42S4.86 52.37 0 55.21a43.81 43.81 0 003.46 8.36c5.44-1.42 9.85-.29 13.56 3.41 3.7 3.7 4.84 8.11 3.41 13.56A43.81 43.81 0 0028.79 84c2.84-4.85 7.97-8.08 13.21-8.08 5.24 0 10.37 3.22 13.21 8.08a43.81 43.81 0 008.36-3.46c-1.42-5.44-.29-9.85 3.41-13.55 3.7-3.7 8.11-5.84 13.55-4.41 1.43-2.64 2.58-5.44 3.46-8.36-4.85-2.85-8.07-6.98-8.07-12.22zM42 60.27c-10.09 0-18.26-8.18-18.26-18.27S31.92 23.73 42 23.73c10.09 0 18.26 8.18 18.26 18.27S52.09 60.27 42 60.27z"/></symbol><symbol viewBox="0 0 78 78" id="pencil-icon" xmlns="http://www.w3.org/2000/svg"><path d="M71.81 6.19C64.6-1.03 59.18.06 59.18.06L33.92 25.32 5.05 54.19 0 78l23.81-5.05 28.87-28.87 25.26-25.26s1.09-5.41-6.13-12.63zm-49.42 63.9l-8.12 1.75c-.79-1.47-1.73-2.93-3.45-4.66-1.73-1.73-3.19-2.67-4.66-3.46l1.75-8.12 2.35-2.35s4.42.09 9.4 5.08c4.99 4.99 5.08 9.41 5.08 9.41l-2.35 2.35z"/></symbol><symbol viewBox="0 0 100 95" id="picture-icon" xmlns="http://www.w3.org/2000/svg"><path d="M85.62 30.86L75.4 2.68C74.64.6 72.43-.5 70.45.22L2.46 25.03C.48 25.75-.51 28.02.25 30.1l10.78 29.71V43.89c0-7.18 5.74-13.03 12.8-13.03H41.8l21.43-15.04 12.4 15.04h9.99zm10.57 9.02H23.84c-2.1 0-3.81 1.8-3.81 4.01V91c0 2.21 1.71 4.01 3.81 4.01h72.35c2.1 0 3.81-1.79 3.81-4.01V43.89c0-2.22-1.7-4.01-3.81-4.01zm-5.52 45.1H30.7v-8.59l9.23-21.47L53.77 72.1l12.98-13.31 16.69-6.02 7.23 16.11v16.1z"/></symbol><symbol viewBox="0 0 18 18" id="search-icon" xmlns="http://www.w3.org/2000/svg"><defs/><path d="M1161.98 169.039a8.022 8.022 0 117.98-8.022 8.008 8.008 0 01-7.98 8.022zm-.01-13.8a5.8 5.8 0 105.8 5.8 5.806 5.806 0 00-5.8-5.798zm4.6 11.712l1.41-1.423 4.01 4.035-1.42 1.424z" transform="translate(-1154 -153)"/></symbol><symbol viewBox="0 0 32 32" xml:space="preserve" id="smile-icon" xmlns="http://www.w3.org/2000/svg"><path d="M16 32C7.2 32 0 24.8 0 16S7.2 0 16 0s16 7.2 16 16-7.2 16-16 16zm0-30C8.3 2 2 8.3 2 16s6.3 14 14 14 14-6.3 14-14S23.7 2 16 2z"/><path d="M9.2 22.3c1 2.7 3.7 4.7 6.8 4.7s5.8-1.9 6.8-4.7H9.2zM10.5 8C9.7 8 9 10 9 12.5s.7 4.5 1.5 4.5 1.5-2 1.5-4.5S11.3 8 10.5 8zm11 0c-.8 0-1.5 2-1.5 4.5s.7 4.5 1.5 4.5 1.5-2 1.5-4.5S22.3 8 21.5 8z"/></symbol><symbol viewBox="0 0 15 15" xml:space="preserve" id="spam-icon" xmlns="http://www.w3.org/2000/svg"><path d="M10.6 0H4.4L0 4.4v6.2L4.4 15h6.2l4.4-4.4V4.4L10.6 0zM8.9 4l-.5 4.2H6.7L6.1 4h2.8zm-.3 6.8c-.2.1-.6.2-1.1.2-.5 0-.9-.1-1.1-.2-.3-.2-.4-.4-.4-.7 0-.3.1-.5.4-.7.3-.1.6-.2 1.1-.2.5 0 .8.1 1.1.2.3.2.4.4.4.7 0 .3-.1.5-.4.7z"/></symbol><symbol viewBox="0 0 80 90" id="thumbs-icon" xmlns="http://www.w3.org/2000/svg"><path d="M58.24 31.81c-.66-1.78 17.7-18.17 6.99-31.46-2.51-3.11-11.01 14.87-23.08 23.02C35.49 27.87 20 37.43 20 42.71v34.2C20 83.27 44.57 90 63.25 90 70.08 90 80 47.12 80 40.31c0-6.83-21.1-6.72-21.76-8.5zM15 32.29c-3.29 0-15 2-15 15.61v24.24c0 13.61 11.71 15.11 15 15.11 3.29 0-5-2.86-5-11.3V44.09c0-8.85 8.29-11.8 5-11.8z"/></symbol><symbol viewBox="0 0 100 88" id="users-icon" xmlns="http://www.w3.org/2000/svg"><path d="M100 88s-.2-18.93-1.35-20.9c-1.72-2.92-5.73-4.93-13.17-8.04-7.42-3.1-9.79-5.72-9.79-11.32 0-3.36 2.26-2.26 3.26-8.42.41-2.55 2.41-.04 2.79-5.87 0-2.32-1.09-2.9-1.09-2.9s.55-3.44.77-6.08c.27-3.3-1.66-11.82-11.95-11.82-10.3 0-12.22 8.52-11.96 11.82.22 2.65.77 6.08.77 6.08s-1.09.58-1.09 2.9c.38 5.83 2.38 3.32 2.79 5.87.99 6.16 3.26 5.06 3.26 8.42 0 3.81-1.1 6.24-4.14 8.37 16.2 8.11 18.37 9.76 18.37 17.02V88H100zM51.12 61.88c-9.89-4.13-13.05-7.62-13.05-15.09 0-4.48 3.02-3.02 4.35-11.23.55-3.4 3.22-.06 3.73-7.83 0-3.1-1.46-3.87-1.46-3.87s.74-4.58 1.03-8.11C46.07 11.36 43.5 0 29.77 0c-13.72 0-16.3 11.36-15.94 15.75.29 3.53 1.03 8.11 1.03 8.11s-1.46.77-1.46 3.87c.51 7.77 3.18 4.42 3.73 7.83 1.33 8.21 4.35 6.74 4.35 11.23 0 7.46-3.16 10.95-13.05 15.09C5.41 63.14 0 65.09 0 69.78V88h69.47V74.34c0-4.28-8.43-8.32-18.35-12.46z"/></symbol><symbol viewBox="0 0 15 14" id="volume-off-icon" xmlns="http://www.w3.org/2000/svg"><defs/><path d="M401.751 1268.27l-13.878 10.64a.506.506 0 01-.314.11.6.6 0 01-.562-.63.659.659 0 01.249-.53l13.878-10.65a.509.509 0 01.315-.11.607.607 0 01.561.64.674.674 0 01-.249.53zm-13.033 2.82a1.2 1.2 0 011.12-1.27v-.01h3.721l3.8-3.52a1.035 1.035 0 01.707-.29 1.186 1.186 0 011.112 1.16l-10.465 8.01v-4.08zm10.476 2.97v4.67a1.2 1.2 0 01-1.123 1.27 1 1 0 01-.658-.25v.01l-3.82-3.15h-.726l6.329-4.85v2.3z" transform="translate(-387 -1266)"/></symbol></svg>