<?xml version="1.0" encoding="utf-8"?>
<!-- Generator: Adobe Illustrator 23.1.0, SVG Export Plug-In . SVG Version: 6.00 Build 0)  -->
<svg version="1.1" id="svg2" xmlns="http://www.w3.org/2000/svg" xmlns:xlink="http://www.w3.org/1999/xlink" x="0px" y="0px"
	 viewBox="8 11.59 10.75 18.18" style="enable-background:new 8 11.59 10.75 18.18;" xml:space="preserve">
<style type="text/css">
	.st0{fill:#777777;}
</style>
<g id="mobile_x5F_phone">
	<g>
		<path class="st0" d="M8,13.5v16.26h10.75V13.5H8z M11.36,28.58h-1.34v-1.19h1.34V28.58z M11.36,26.2h-1.34v-1.19h1.34V26.2z
			 M11.36,23.82h-1.34v-1.19h1.34V23.82z M14.05,28.58H12.7v-1.19h1.34V28.58z M14.05,26.2H12.7v-1.19h1.34V26.2z M14.05,23.82H12.7
			v-1.19h1.34V23.82z M16.73,28.58h-1.34v-1.19h1.34V28.58z M16.73,26.2h-1.34v-1.19h1.34V26.2z M16.73,23.82h-1.34v-1.19h1.34
			V23.82z M16.73,21.44h-6.72v-5.56h6.72V21.44z"/>
	</g>
</g>
<rect x="14.72" y="11.59" class="st0" width="2.02" height="3.25"/>
</svg>
